<?xml version="1.0" encoding="UTF-8"?>
<svg id="_图层_1" data-name="图层 1" xmlns="http://www.w3.org/2000/svg" viewBox="0 0 2560 800">
  <defs>
    <style>
      .cls-1 {
        fill: #020000;
        stroke-width: 0px;
      }
    </style>
  </defs>
  <g>
    <polygon class="cls-1" points="586.36 239.45 525.35 312 525.35 502.75 586.36 575.8 586.36 239.45"/>
    <polygon class="cls-1" points="256.36 207.54 197.76 207.54 192.23 207.54 175.17 207.54 193.71 227.72 247.75 292.33 247.82 292.27 329.91 390.56 342.78 405.94 342.77 405.95 381.03 451.75 382.62 453.59 382.63 453.59 507.91 603.36 587.06 603.36 563.65 575.3 340.07 307.61 256.36 207.54"/>
    <polygon class="cls-1" points="443.83 382.08 443.12 381.49 588.45 206.9 582.14 206.9 570.52 206.9 510.63 206.9 395.34 344.98 435.06 392.59 443.83 382.08"/>
    <polygon class="cls-1" points="179.53 602.72 259.08 602.72 371.78 467.69 332.06 420.08 179.53 602.72"/>
  </g>
  <g>
    <path class="cls-1" d="M708.97,273.97h72.14l62.02,112.17h2.64l64.22-112.17h70.82l-91.49,147.35,94.57,157.91h-73.45l-65.1-117.45h-2.64l-69.06,117.45h-71.26l96.33-155.27-89.73-150Z"/>
    <path class="cls-1" d="M1252.2,460.47c0,38.42-6.89,68.56-20.67,90.4-13.79,21.84-38.56,32.76-74.34,32.76-20.83,0-36.88-3.15-48.16-9.46-11.3-6.3-19.43-15.32-24.41-27.05v120.08h-59.38v-325.5h59.38v31.23c11.43-23.75,35.63-35.63,72.58-35.63,24.92,0,44.35,4.92,58.28,14.74,13.93,9.83,23.53,23.61,28.81,41.35,5.28,17.74,7.92,40.11,7.92,67.08ZM1139.59,538.33c21.11,0,35.04-6.74,41.79-20.23,6.74-13.49,10.12-32.7,10.12-57.63,0-17-1.25-31.08-3.74-42.23-2.49-11.14-7.55-19.93-15.17-26.39-7.63-6.45-18.63-9.68-32.99-9.68-21.99,0-37.25,6.45-45.75,19.35-8.51,12.91-12.76,32.55-12.76,58.94s4.32,45.24,12.98,58.28c8.65,13.05,23.82,19.58,45.53,19.58Z"/>
    <path class="cls-1" d="M1508.2,472.79l-154.39,9.68c.88,18.78,6.52,32.48,16.93,41.13,10.4,8.65,26.76,12.98,49.04,12.98,13.78,0,28.15-1.68,43.11-5.06,14.96-3.37,26.68-7.26,35.19-11.65v47.51c-7.63,4.4-19.65,8.21-36.07,11.43-16.42,3.23-34.02,4.83-52.78,4.83-25.51,0-46.63-3.74-63.34-11.22-16.71-7.48-29.47-20.23-38.27-38.27-8.8-18.03-13.19-42.59-13.19-73.68s4.4-55.64,13.19-73.68c8.8-18.04,21.62-30.79,38.49-38.27,16.86-7.48,38.05-11.22,63.56-11.22,38.41,0,64.81,9.02,79.18,27.05,14.36,18.04,21.55,43.48,21.55,76.32,0,8.79-.74,19.5-2.2,32.11ZM1455.86,433.2c0-16.42-3.16-29.03-9.46-37.83-6.31-8.8-18.55-13.19-36.73-13.19-20.23,0-34.38,4.61-42.45,13.85-8.07,9.24-12.53,24.27-13.41,45.09l102.05-7.92Z"/>
    <path class="cls-1" d="M1696.02,390.09h-5.72c-38.12,0-60.56,17.01-67.29,51.03v138.12h-59.38v-237.53h59.38v42.67c6.74-17.88,15.98-30.2,27.71-36.95,11.73-6.74,25.8-10.12,42.23-10.12h4.83l-1.75,52.79Z"/>
    <path class="cls-1" d="M1830.18,535.25c7.92,0,14.66-.58,20.23-1.76v46.19c-10.26,1.47-20.23,2.2-29.91,2.2-19.95,0-35.41-2.2-46.41-6.59-11-4.4-18.99-12.17-23.97-23.32-4.98-11.14-7.48-27.12-7.48-47.94v-115.25h-32.11v-47.06h32.11v-56.31h59.39v56.31h50.58v47.06h-50.58v110.41c0,9.98.73,17.45,2.2,22.44,1.47,4.98,4.18,8.5,8.14,10.55,3.96,2.05,9.89,3.08,17.81,3.08Z"/>
    <path class="cls-1" d="M2067.69,500.94l-28.15,78.3h-63.78l113.93-305.27h83.14l113.48,305.27h-65.97l-26.84-78.3h-125.8ZM2175.02,449.03l-41.34-120.08h-5.28l-42.67,120.08h89.29Z"/>
    <path class="cls-1" d="M2384.83,273.97v305.27h-62.02v-305.27h62.02Z"/>
  </g>
  <g>
    <polygon class="cls-1" points="586.36 239.45 525.35 312 525.35 502.75 586.36 575.8 586.36 239.45"/>
    <polygon class="cls-1" points="256.36 207.54 197.76 207.54 192.23 207.54 175.17 207.54 193.71 227.72 247.75 292.33 247.82 292.27 329.91 390.56 342.78 405.94 342.77 405.95 381.03 451.75 382.62 453.59 382.63 453.59 507.91 603.36 587.06 603.36 563.65 575.3 340.07 307.61 256.36 207.54"/>
    <polygon class="cls-1" points="443.83 382.08 443.12 381.49 588.45 206.9 582.14 206.9 570.52 206.9 510.63 206.9 395.34 344.98 435.06 392.59 443.83 382.08"/>
    <polygon class="cls-1" points="179.53 602.72 259.08 602.72 371.78 467.69 332.06 420.08 179.53 602.72"/>
  </g>
  <g>
    <path class="cls-1" d="M708.97,273.97h72.14l62.02,112.17h2.64l64.22-112.17h70.82l-91.49,147.35,94.57,157.91h-73.45l-65.1-117.45h-2.64l-69.06,117.45h-71.26l96.33-155.27-89.73-150Z"/>
    <path class="cls-1" d="M1252.2,460.47c0,38.42-6.89,68.56-20.67,90.4-13.79,21.84-38.56,32.76-74.34,32.76-20.83,0-36.88-3.15-48.16-9.46-11.3-6.3-19.43-15.32-24.41-27.05v120.08h-59.38v-325.5h59.38v31.23c11.43-23.75,35.63-35.63,72.58-35.63,24.92,0,44.35,4.92,58.28,14.74,13.93,9.83,23.53,23.61,28.81,41.35,5.28,17.74,7.92,40.11,7.92,67.08ZM1139.59,538.33c21.11,0,35.04-6.74,41.79-20.23,6.74-13.49,10.12-32.7,10.12-57.63,0-17-1.25-31.08-3.74-42.23-2.49-11.14-7.55-19.93-15.17-26.39-7.63-6.45-18.63-9.68-32.99-9.68-21.99,0-37.25,6.45-45.75,19.35-8.51,12.91-12.76,32.55-12.76,58.94s4.32,45.24,12.98,58.28c8.65,13.05,23.82,19.58,45.53,19.58Z"/>
    <path class="cls-1" d="M1508.2,472.79l-154.39,9.68c.88,18.78,6.52,32.48,16.93,41.13,10.4,8.65,26.76,12.98,49.04,12.98,13.78,0,28.15-1.68,43.11-5.06,14.96-3.37,26.68-7.26,35.19-11.65v47.51c-7.63,4.4-19.65,8.21-36.07,11.43-16.42,3.23-34.02,4.83-52.78,4.83-25.51,0-46.63-3.74-63.34-11.22-16.71-7.48-29.47-20.23-38.27-38.27-8.8-18.03-13.19-42.59-13.19-73.68s4.4-55.64,13.19-73.68c8.8-18.04,21.62-30.79,38.49-38.27,16.86-7.48,38.05-11.22,63.56-11.22,38.41,0,64.81,9.02,79.18,27.05,14.36,18.04,21.55,43.48,21.55,76.32,0,8.79-.74,19.5-2.2,32.11ZM1455.86,433.2c0-16.42-3.16-29.03-9.46-37.83-6.31-8.8-18.55-13.19-36.73-13.19-20.23,0-34.38,4.61-42.45,13.85-8.07,9.24-12.53,24.27-13.41,45.09l102.05-7.92Z"/>
    <path class="cls-1" d="M1696.02,390.09h-5.72c-38.12,0-60.56,17.01-67.29,51.03v138.12h-59.38v-237.53h59.38v42.67c6.74-17.88,15.98-30.2,27.71-36.95,11.73-6.74,25.8-10.12,42.23-10.12h4.83l-1.75,52.79Z"/>
    <path class="cls-1" d="M1830.18,535.25c7.92,0,14.66-.58,20.23-1.76v46.19c-10.26,1.47-20.23,2.2-29.91,2.2-19.95,0-35.41-2.2-46.41-6.59-11-4.4-18.99-12.17-23.97-23.32-4.98-11.14-7.48-27.12-7.48-47.94v-115.25h-32.11v-47.06h32.11v-56.31h59.39v56.31h50.58v47.06h-50.58v110.41c0,9.98.73,17.45,2.2,22.44,1.47,4.98,4.18,8.5,8.14,10.55,3.96,2.05,9.89,3.08,17.81,3.08Z"/>
    <path class="cls-1" d="M2067.69,500.94l-28.15,78.3h-63.78l113.93-305.27h83.14l113.48,305.27h-65.97l-26.84-78.3h-125.8ZM2175.02,449.03l-41.34-120.08h-5.28l-42.67,120.08h89.29Z"/>
    <path class="cls-1" d="M2384.83,273.97v305.27h-62.02v-305.27h62.02Z"/>
  </g>
</svg>