<svg class="svg-icon" style="width: 1em; height: 1em;vertical-align: middle;fill: currentColor;overflow: hidden;" viewBox="0 0 1024 1024" version="1.1" xmlns="http://www.w3.org/2000/svg"><path d="M532 532m-340 0a340 340 0 1 0 680 0 340 340 0 1 0-680 0Z" fill="#E9EFFF" /><path d="M667.5 401.3h40v98h-40z" fill="#3366FF" /><path d="M609.529 441.362v-40h98v40zM429.598 481.3l28.284 28.284L344.746 622.72l-28.284-28.284z" fill="#3366FF" /><path d="M486.13 594.422L659.3 421.254l28.284 28.284-173.169 173.168z" fill="#3366FF" /><path d="M543.012 594.374l-28.284 28.284-113.136-113.136 28.284-28.284z" fill="#3366FF" /><path d="M902.9 867L798 762.2c58.5-66.8 94-154.4 94-250.2 0-209.9-170.1-380-380-380S132 302.1 132 512s170.1 380 380 380c99.7 0 190.4-38.4 258.2-101.2l104.4 104.4 28.3-28.2zM512 852c-187.8 0-340-152.2-340-340s152.2-340 340-340 340 152.2 340 340-152.2 340-340 340z" fill="#3366FF" /></svg>