<?xml version="1.0" encoding="UTF-8" standalone="no" ?>
<!DOCTYPE svg PUBLIC "-//W3C//DTD SVG 1.1//EN" "http://www.w3.org/Graphics/SVG/1.1/DTD/svg11.dtd">
<svg xmlns="http://www.w3.org/2000/svg" xmlns:xlink="http://www.w3.org/1999/xlink" version="1.1" width="1080" height="1080" viewBox="0 0 1080 1080" xml:space="preserve">
<defs>
</defs>
<rect x="0" y="0" width="100%" height="100%" fill="transparent"></rect>
<g transform="matrix(Infinity NaN NaN Infinity 0 0)" id="01b0ea44-f44a-40d7-b5c4-19a8c9b24c04"  >
</g>
<g transform="matrix(1 0 0 1 540 540)" id="c43f1ff7-f3e4-430f-bef2-08206087611b"  >
<rect style="stroke: none; stroke-width: 1; stroke-dasharray: none; stroke-linecap: butt; stroke-dashoffset: 0; stroke-linejoin: miter; stroke-miterlimit: 4; fill: rgb(255,255,255); fill-rule: nonzero; opacity: 1; visibility: hidden;" vector-effect="non-scaling-stroke"  x="-540" y="-540" rx="0" ry="0" width="1080" height="1080" />
</g>
<g transform="matrix(1.84 0 0 1.84 540 540)"  >
<path style="stroke: rgb(0,0,0); stroke-width: 0; stroke-dasharray: none; stroke-linecap: butt; stroke-dashoffset: 0; stroke-linejoin: miter; stroke-miterlimit: 4; fill: rgb(0,0,0); fill-rule: nonzero; opacity: 1;" vector-effect="non-scaling-stroke"  transform=" translate(-224, -256.18)" d="M 231.79 429.05 C 239.25 430.95 245.92 434.85 251.20999999999998 440.13 L 251.26 440.19 C 251.79999999999998 440.73 252.32999999999998 441.28 252.84 441.85 L 364.73 372.56 C 363.86 369.18 363.39000000000004 365.62 363.39000000000004 361.96 C 363.39000000000004 350.32 368.13000000000005 339.76 375.78000000000003 332.09999999999997 L 375.83000000000004 332.04999999999995 C 380.98 326.90999999999997 387.44000000000005 323.0799999999999 394.65000000000003 321.11999999999995 L 394.65000000000003 189.64 C 385.98 188.1 378.22 183.89999999999998 372.23 177.91 L 372.21000000000004 177.88 L 372.18000000000006 177.91 C 371.3400000000001 177.06 370.5300000000001 176.18 369.76000000000005 175.27 L 260.02000000000004 240.69 C 261.84000000000003 245.35 262.84000000000003 250.41 262.84000000000003 255.7 C 262.84000000000003 267.15999999999997 258.20000000000005 277.53 250.69000000000003 285.03999999999996 C 245.4689199286912 290.2713809371123 238.94331186994523 294.0106579358541 231.79000000000002 295.86999999999995 L 231.79000000000002 429.04999999999995 z M 221.34 227.43 C 236.95 227.43 249.61 240.09 249.61 255.70000000000002 C 249.61 271.31000000000006 236.95000000000002 283.97 221.34 283.97 C 205.73 283.97 193.07 271.31 193.07 255.70000000000002 C 193.07 240.09000000000003 205.73 227.43 221.34 227.43 z M 262.12 458.74 C 263.12 462.34000000000003 263.65 466.13 263.65 470.05 C 263.65 481.73 258.91999999999996 492.3 251.26 499.96000000000004 C 243.60999999999999 507.61 233.03 512.35 221.35 512.35 C 209.70999999999998 512.35 199.15 507.61 191.49 499.96000000000004 L 191.46 499.93000000000006 L 191.44 499.96000000000004 C 183.78 492.3 179.04 481.73 179.04 470.05 C 179.04 465.89 179.65 461.86 180.78 458.06 L 73.03 391.22 C 72.76 391.5 72.49 391.78000000000003 72.22 392.05 C 64.56 399.71000000000004 53.989999999999995 404.45 42.31 404.45 C 30.660000000000004 404.45 20.1 399.71 12.450000000000003 392.05 L 12.420000000000003 392.03000000000003 L 12.390000000000004 392.05 C 4.74 384.4 0 373.82 0 362.14 C 0 350.5 4.74 339.94 12.39 332.28 L 12.450000000000001 332.22999999999996 C 16.72 327.96 21.89 324.59999999999997 27.660000000000004 322.46 L 27.660000000000004 187.68 C 21.946978322885183 185.55387449819642 16.75922284871612 182.221568713671 12.45000000000001 177.91000000000003 L 12.420000000000003 177.88 L 12.390000000000004 177.91 C 4.74 170.25 0 159.67 0 148 C 0 136.35 4.74 125.78999999999999 12.39 118.14 L 12.450000000000001 118.08 C 20.1 110.42999999999999 30.660000000000004 105.69 42.31 105.69 C 52.25 105.69 61.400000000000006 109.14999999999999 68.63 114.92 L 180.51 53.370000000000005 C 179.53084327284617 49.76159944078594 179.03649959727923 46.03888890437356 179.04 42.3 C 179.04 30.660000000000004 183.78 20.100000000000005 191.44 12.440000000000005 L 191.49 12.390000000000004 C 199.15 4.74 209.7 0 221.35 0 C 232.99 0 243.54999999999998 4.74 251.20999999999998 12.39 L 251.26 12.440000000000001 C 258.92 20.1 263.65 30.66 263.65 42.3 C 263.65 46.309999999999995 263.09999999999997 50.18 262.06 53.849999999999994 L 374.15 116.28 C 381.60999999999996 109.69 391.39 105.69 402.09 105.69 C 413.73999999999995 105.69 424.29999999999995 110.42999999999999 431.95 118.08 L 432.01 118.14 C 439.65999999999997 125.79 444.4 136.35 444.4 148 C 444.4 159.67 439.65999999999997 170.25 432.01 177.91 C 427.2523747219768 182.66420813710891 421.4322232478625 186.21868227059332 415.03 188.28 L 415.03 320.7 C 422.92999999999995 322.49 430.01 326.5 435.55999999999995 332.05 L 435.60999999999996 332.1 C 443.25999999999993 339.76000000000005 447.99999999999994 350.32000000000005 447.99999999999994 361.96000000000004 C 447.99999999999994 373.64000000000004 443.25999999999993 384.22 435.60999999999996 391.88000000000005 C 427.94999999999993 399.53000000000003 417.36999999999995 404.27000000000004 405.69999999999993 404.27000000000004 C 394.04999999999995 404.27000000000004 383.48999999999995 399.53000000000003 375.8399999999999 391.88000000000005 L 375.80999999999995 391.8500000000001 L 375.78 391.88000000000005 C 375.34 391.43000000000006 374.90999999999997 390.9800000000001 374.47999999999996 390.52000000000004 L 262.11999999999995 458.74 z M 190.32 441.34000000000003 C 190.69 440.95000000000005 191.06 440.56000000000006 191.44 440.19000000000005 L 191.49 440.13000000000005 C 196.9819558369141 434.62898691616584 203.8852732012694 430.7499800161948 211.43999999999997 428.9200000000001 L 211.44 296 C 204.10173255257448 294.181510673727 197.40019372887653 290.3915795329773 192.06 285.04 L 192.04 285.02000000000004 L 192.01 285.04 C 184.5 277.53000000000003 179.85999999999999 267.16 179.85999999999999 255.70000000000002 C 179.85999999999999 250.18 180.95 244.9 182.92 240.07000000000002 L 75.23 174.56 C 74.28 175.73 73.28 176.85 72.22 177.91 C 65.68087976922625 184.45925103015236 57.17128597238546 188.6789133546799 48 189.92 L 48 320.22 C 57.37 321.49 65.78 325.84000000000003 72.17 332.23 L 72.22 332.28000000000003 C 79.87 339.94000000000005 84.61 350.5 84.61 362.14000000000004 C 84.61 366.09000000000003 84.07 369.90000000000003 83.06 373.52000000000004 L 190.32 441.34000000000003 z M 192.97 47.22000000000003 C 193.04 47.630000000000024 193.12 48.03000000000003 193.21 48.440000000000026 L 193.23000000000002 48.560000000000024 L 193.35000000000002 49.07000000000002 L 193.38000000000002 49.18000000000002 C 193.47000000000003 49.58000000000002 193.58 49.98000000000002 193.70000000000002 50.37000000000002 L 193.79000000000002 50.68000000000002 L 193.88000000000002 50.99000000000002 L 193.98000000000002 51.300000000000026 L 194.16000000000003 51.82000000000003 L 194.19000000000003 51.90000000000003 L 194.30000000000004 52.200000000000024 L 194.41000000000005 52.50000000000002 L 194.52000000000007 52.80000000000002 L 194.64000000000007 53.100000000000016 L 194.76000000000008 53.390000000000015 L 194.88000000000008 53.680000000000014 L 194.89000000000007 53.680000000000014 L 195.01000000000008 53.97000000000001 L 195.24000000000007 54.47000000000001 L 195.30000000000007 54.610000000000014 L 195.41000000000008 54.84000000000001 L 195.55000000000007 55.12000000000001 L 195.70000000000007 55.41000000000001 L 195.70000000000007 55.42000000000001 L 195.84000000000006 55.69000000000001 L 195.99000000000007 55.960000000000015 L 196.11000000000007 56.180000000000014 L 196.14000000000007 56.240000000000016 L 196.30000000000007 56.52000000000002 L 196.31000000000006 56.530000000000015 L 196.45000000000005 56.79000000000001 L 196.61000000000004 57.06000000000002 L 196.72000000000006 57.240000000000016 L 196.78000000000006 57.33000000000002 L 197.01000000000005 57.71000000000002 L 197.16000000000005 57.94000000000002 L 197.39000000000004 58.28000000000002 L 197.56000000000003 58.54000000000002 L 197.64000000000004 58.65000000000002 L 197.82000000000005 58.91000000000002 L 197.86000000000004 58.98000000000002 L 197.90000000000003 59.02000000000002 L 198.21000000000004 59.460000000000015 L 198.36000000000004 59.66000000000002 L 198.37000000000003 59.670000000000016 L 198.56000000000003 59.920000000000016 L 198.61000000000004 59.98000000000002 L 198.76000000000005 60.170000000000016 L 198.95000000000005 60.41000000000002 L 198.97000000000006 60.44000000000002 L 199.15000000000006 60.65000000000002 L 199.35000000000005 60.89000000000002 L 199.56000000000006 61.130000000000024 L 199.57000000000005 61.15000000000003 L 199.63000000000005 61.21000000000003 L 199.97000000000006 61.60000000000003 L 200.03000000000006 61.67000000000003 L 200.08000000000007 61.72000000000003 L 200.48000000000008 62.15000000000003 L 200.5300000000001 62.21000000000003 L 200.97000000000008 62.65000000000003 L 200.98000000000008 62.67000000000003 L 201.05000000000007 62.74000000000003 L 201.47000000000006 63.14000000000003 L 201.48000000000005 63.15000000000003 L 201.50000000000006 63.17000000000003 L 201.96000000000006 63.60000000000003 L 201.98000000000008 63.62000000000003 L 202.00000000000009 63.63000000000003 L 202.42000000000007 64.01000000000003 L 202.43000000000006 64.02000000000004 C 207.66930934104863 68.5976667630732 214.39260504306748 71.117125881853 221.35000000000008 71.11000000000004 C 228.39000000000007 71.11000000000004 234.8400000000001 68.58000000000004 239.85000000000008 64.38000000000004 L 240.0900000000001 64.17000000000004 L 240.3100000000001 63.98000000000005 L 240.3300000000001 63.97000000000005 L 240.5600000000001 63.76000000000005 L 240.7100000000001 63.62000000000005 L 240.8000000000001 63.55000000000005 L 241.1600000000001 63.21000000000004 L 241.2200000000001 63.15000000000004 L 241.2600000000001 63.12000000000004 L 241.6000000000001 62.78000000000004 L 241.8300000000001 62.56000000000004 L 242.1400000000001 62.23000000000004 L 242.1500000000001 62.22000000000004 L 242.2000000000001 62.170000000000044 L 242.3700000000001 61.990000000000045 L 242.5800000000001 61.76000000000005 L 242.5900000000001 61.75000000000005 L 242.75000000000009 61.58000000000005 L 242.79000000000008 61.53000000000005 L 243.00000000000009 61.29000000000005 L 243.01000000000008 61.29000000000005 L 243.21000000000006 61.06000000000005 L 243.41000000000005 60.81000000000005 L 243.81000000000006 60.34000000000005 L 243.82000000000005 60.32000000000005 C 244.07000000000005 60.01000000000005 244.31000000000006 59.70000000000005 244.54000000000005 59.38000000000005 L 244.58000000000004 59.32000000000005 L 244.77000000000004 59.07000000000005 L 244.95000000000005 58.81000000000005 L 245.13000000000005 58.550000000000054 L 245.13000000000005 58.540000000000056 L 245.31000000000006 58.290000000000056 L 245.48000000000005 58.02000000000005 L 245.66000000000005 57.760000000000055 L 245.83000000000004 57.49000000000005 L 245.88000000000005 57.41000000000005 L 246.13000000000005 56.980000000000054 L 246.17000000000004 56.92000000000005 L 246.45000000000005 56.43000000000005 L 246.47000000000006 56.39000000000005 L 246.63000000000005 56.12000000000005 L 246.75000000000006 55.880000000000045 L 246.78000000000006 55.840000000000046 L 246.92000000000004 55.55000000000005 L 247.07000000000005 55.270000000000046 L 247.21000000000004 54.990000000000045 L 247.21000000000004 54.98000000000005 L 247.35000000000002 54.700000000000045 L 247.49 54.410000000000046 L 247.75 53.83000000000005 L 247.98 53.28000000000005 L 248.01999999999998 53.18000000000005 L 248.23999999999998 52.64000000000005 L 248.35 52.34000000000005 L 248.46 52.040000000000056 L 248.57000000000002 51.730000000000054 L 248.67000000000002 51.43000000000006 L 248.77 51.120000000000054 L 248.78 51.09000000000005 C 248.91 50.70000000000005 249.03 50.300000000000054 249.14000000000001 49.89000000000005 L 249.14000000000001 49.88000000000005 L 249.22000000000003 49.56000000000005 L 249.30000000000004 49.260000000000055 L 249.30000000000004 49.25000000000006 L 249.38000000000005 48.93000000000006 L 249.45000000000005 48.620000000000054 L 249.45000000000005 48.610000000000056 L 249.52000000000004 48.300000000000054 C 249.94223356591203 46.32800892126914 250.15342258036583 44.31668497409013 250.15000000000003 42.30000000000005 C 250.15000000000003 26.400000000000055 237.26000000000005 13.500000000000053 221.35000000000002 13.500000000000053 C 205.44 13.500000000000053 192.55 26.400000000000055 192.55 42.300000000000054 C 192.55 43.75000000000006 192.66000000000003 45.18000000000006 192.86 46.57000000000005 L 192.91000000000003 46.89000000000005 L 192.97000000000003 47.22000000000005 z M 190.37 71.11000000000003 L 82.43 134.59 C 83.85000000000001 138.81 84.61000000000001 143.31 84.61000000000001 148 C 84.61000000000001 150.36 84.42000000000002 152.68 84.04000000000002 154.94 L 195.25 223.49 C 202.38 217.69 211.47 214.21 221.35 214.21 C 231.47 214.21 240.75 217.86 247.95999999999998 223.92000000000002 L 360.53 155.95000000000002 C 360.03999999999996 153.38000000000002 359.78999999999996 150.72000000000003 359.78999999999996 148.00000000000003 C 359.78999999999996 144.08000000000004 360.31999999999994 140.29000000000002 361.31999999999994 136.69000000000003 L 251.91 71.56 C 251.69 71.78 251.48 72 251.26 72.22 C 243.60999999999999 79.87 233.03 84.61 221.35 84.61 C 209.70999999999998 84.61 199.15 79.87 191.49 72.22 L 191.46 72.19 L 191.44 72.22 C 191.07999999999998 71.85 190.72 71.48 190.37 71.11 z M 27.66 172.8 L 27.66 172.69 C 30.697616252845425 174.53021750562476 34.051514442968845 175.78835322709674 37.54999999999998 176.4 C 39.099999999999994 176.66 40.69 176.8 42.309999999999995 176.8 C 58.209999999999994 176.8 71.11 163.9 71.11 148 C 71.11 132.09 58.21 119.2 42.31 119.2 C 26.400000000000002 119.2 13.510000000000002 132.09 13.510000000000002 148 C 13.510000000000002 158.55 19.19 167.78 27.660000000000004 172.8 z M 61.2 383.88 L 60.970000000000006 383.73 C 63.52 381.61 65.75 379.02000000000004 67.51 375.97 C 67.94000000000001 375.22 68.34 374.45000000000005 68.71000000000001 373.67 C 70.29650037873435 370.0332782318646 71.11361797567345 366.10770910990294 71.11000000000001 362.14000000000004 C 71.11000000000001 346.23 58.210000000000015 333.34000000000003 42.31000000000002 333.34000000000003 C 26.400000000000016 333.34000000000003 13.510000000000016 346.23 13.510000000000016 362.14000000000004 C 13.510000000000016 378.05000000000007 26.400000000000016 390.94000000000005 42.31000000000002 390.94000000000005 C 49.54000000000002 390.94000000000005 56.140000000000015 388.28000000000003 61.20000000000002 383.88000000000005 z M 249.76 47.04 L 249.76999999999998 47 L 262.06 53.85 L 249.76 47.04 z M 387.02 123.44999999999999 L 387.03999999999996 123.46 C 384.6951884519029 124.89768413901662 382.5671439080957 126.66207550128715 380.71999999999997 128.70000000000002 L 380.45 128.98999999999998 L 380.44 129.01 L 380.23 129.23999999999998 L 380.20000000000005 129.29 L 379.94000000000005 129.59 L 379.87000000000006 129.68 L 379.81000000000006 129.75 L 379.45000000000005 130.2 L 379.43000000000006 130.22 C 375.4430548732007 135.28806770358364 373.2800331408808 141.5516713518978 373.2900000000001 148 C 373.2900000000001 163.9 386.19000000000005 176.8 402.0900000000001 176.8 C 418.0000000000001 176.8 430.8900000000001 163.9 430.8900000000001 148 C 430.8900000000001 132.09 418.0000000000001 119.2 402.0900000000001 119.2 C 396.5700000000001 119.2 391.4100000000001 120.75 387.0200000000001 123.45 z M 405.7 333.15999999999997 C 421.59999999999997 333.15999999999997 434.5 346.05999999999995 434.5 361.96 C 434.5 377.87 421.6 390.76 405.7 390.76 C 389.78999999999996 390.76 376.89 377.87 376.89 361.96 C 376.89 346.06 389.78999999999996 333.15999999999997 405.7 333.15999999999997 z M 221.35 441.25 C 237.26 441.25 250.15 454.14 250.15 470.05 C 250.15 485.95 237.26 498.85 221.35 498.85 C 205.44 498.85 192.54999999999998 485.95000000000005 192.54999999999998 470.05 C 192.54999999999998 454.14 205.44 441.25 221.35 441.25 z" stroke-linecap="round" />
</g>
</svg>