<?xml version="1.0" encoding="UTF-8"?>
<svg id="_图层_1" data-name="图层 1" xmlns="http://www.w3.org/2000/svg" viewBox="0 0 1920 1920">
  <defs>
    <style>
      .cls-1 {
        fill: #070000;
        stroke-width: 0px;
      }
    </style>
  </defs>
  <polygon class="cls-1" points="1707.19 324.74 1473.39 602.73 1473.39 1333.64 1707.19 1613.58 1707.19 324.74"/>
  <polygon class="cls-1" points="442.67 202.43 218.14 202.43 196.95 202.43 131.54 202.43 202.59 279.79 409.67 527.35 409.94 527.12 724.51 903.74 773.81 962.68 773.77 962.73 920.36 1138.24 926.49 1145.27 926.52 1145.26 1406.57 1719.16 1709.86 1719.16 1620.14 1611.63 763.42 585.89 442.67 202.43"/>
  <polygon class="cls-1" points="1161.01 871.25 1158.32 869 1715.19 200 1691 200 1646.47 200 1416.97 200 975.2 729.1 1127.4 911.53 1161.01 871.25"/>
  <polygon class="cls-1" points="148.27 1716.73 453.07 1716.73 884.93 1199.29 732.73 1016.86 148.27 1716.73"/>
</svg>