<svg xmlns="http://www.w3.org/2000/svg" viewBox="0 0 100 100">
    <defs>
        <style>
            .cls-1{fill:#d5f1fd;}.cls-2{fill:#128297;}.cls-3{fill:#f8f8f8;}.cls-4{fill:#0f697a;}.cls-5{fill:#7cd7e3;}.cls-6{fill:#1f1f25;}.cls-7{fill:none;}</style>
    </defs>
    <g id="Layer_2" data-name="Layer 2">
        <g id="Background">
            <path class="cls-1"
                d="M15.92,93.75C8.83,93.75,4.6,88,4.6,80.9V5.29A1.52,1.52,0,0,1,6.12,3.77H81.64a1.52,1.52,0,0,1,1.52,1.52V93.75Z" />
            <path class="cls-1"
                d="M4.73,82.91c.87,6.42,4.81,10.84,11,10.84,5.61,0,10.25-4.48,11-10.73l-22-.11" />
            <path class="cls-2"
                d="M15.92,93.75c5.69,0,10.37-5,11-11.51a1.38,1.38,0,0,1,1.29-1.34H94.09a1.45,1.45,0,0,1,1.3,1.71c-.71,6.29-5.32,11.14-10.9,11.14Z" />
            <rect class="cls-3" x="17.25" y="17.55" width="11.29" height="11.29" rx="1.47" />
            <path class="cls-4"
                d="M27,29.4H18.77a2.09,2.09,0,0,1-2.08-2.08V19.07A2.09,2.09,0,0,1,18.77,17H27a2.09,2.09,0,0,1,2.08,2.08v8.25A2.09,2.09,0,0,1,27,29.4ZM18.77,18.1a1,1,0,0,0-1,1v8.25a1,1,0,0,0,1,1H27a1,1,0,0,0,1-1V19.07a1,1,0,0,0-1-1Z" />
            <rect class="cls-3" x="17.25" y="37.36" width="11.29" height="11.29" rx="1.47" />
            <path class="cls-4"
                d="M27,49.21H18.77a2.09,2.09,0,0,1-2.08-2.08V38.88a2.08,2.08,0,0,1,2.08-2.08H27a2.08,2.08,0,0,1,2.08,2.08v8.25A2.09,2.09,0,0,1,27,49.21Zm-8.25-11.3a1,1,0,0,0-1,1v8.25a1,1,0,0,0,1,1H27a1,1,0,0,0,1-1V38.88a1,1,0,0,0-1-1Z" />
            <rect class="cls-3" x="17.25" y="57.16" width="11.29" height="11.29" rx="1.47" />
            <path class="cls-4"
                d="M27,69H18.77a2.08,2.08,0,0,1-2.08-2.07V58.69a2.08,2.08,0,0,1,2.08-2.08H27a2.08,2.08,0,0,1,2.08,2.08v8.25A2.08,2.08,0,0,1,27,69ZM18.77,57.72a1,1,0,0,0-1,1v8.25a1,1,0,0,0,1,1H27a1,1,0,0,0,1-1V58.69a1,1,0,0,0-1-1Z" />
            <rect class="cls-5" x="38.45" y="20.91" width="32" height="4.57" />
            <rect class="cls-5" x="38.45" y="40.72" width="32" height="4.57" />
            <rect class="cls-5" x="38.45" y="60.53" width="32" height="4.57" />
            <path class="cls-6"
                d="M22.26,26.92a.93.93,0,0,1-.7-.31l-2.67-3,1.38-1.24,2,2.19L28.58,17,30,18.14l-7,8.45a1,1,0,0,1-.7.33Z" />
            <path class="cls-6"
                d="M22.26,46.73a1,1,0,0,1-.7-.31l-2.67-3,1.38-1.24,2,2.19,6.35-7.62L30,38l-7,8.44a.94.94,0,0,1-.7.34Z" />
            <path class="cls-4"
                d="M55,64.33l7.24-2.07a1.29,1.29,0,0,0,.87-.38L94.32,30.62a1.32,1.32,0,0,0,0-1.86l-5.18-5.18a1.32,1.32,0,0,0-1.86,0L56,54.84a1.29,1.29,0,0,0-.38.87L53.57,63A1.32,1.32,0,0,0,55,64.33Z" />
            <rect class="cls-7" width="100" height="100" />
        </g>
    </g>
</svg>