<svg width="180" height="180" viewBox="0 0 180 180" fill="none" xmlns="http://www.w3.org/2000/svg">
<path fill-rule="evenodd" clip-rule="evenodd" d="M44.6929 23C48.286 23 51.2018 25.9157 51.2018 29.5088V38.1841H59.877C63.4749 38.1841 66.3859 41.0999 66.3859 44.693C66.3859 48.286 63.4749 51.2018 59.877 51.2018H51.2018V59.877C51.2018 63.4749 48.286 66.3858 44.6929 66.3858C41.0998 66.3858 38.1841 63.4749 38.1841 59.877V51.2018H29.5089C25.9158 51.2018 23 48.286 23 44.693C23 41.0999 25.9158 38.1841 29.5089 38.1841H38.1841V29.5088C38.1841 25.9157 41.0998 23 44.6929 23ZM96.3266 29.0765C99.0166 29.0765 101.433 30.7337 102.398 33.246L112.932 60.636C114.763 65.3964 115.32 66.7029 116.064 67.75C116.823 68.8212 117.755 69.7532 118.822 70.5122C119.869 71.2567 121.175 71.8091 125.94 73.644L153.33 84.1735C155.843 85.1438 157.5 87.5552 157.5 90.25C157.5 92.9448 155.843 95.3562 153.33 96.3265L125.94 106.856C121.175 108.691 119.869 109.243 118.822 109.988C117.755 110.747 116.823 111.679 116.064 112.75C115.32 113.797 114.763 115.104 112.932 119.864L102.398 147.254C101.433 149.766 99.0166 151.423 96.3266 151.423C93.6318 151.423 91.2155 149.766 90.25 147.254L79.7158 119.864C77.8856 115.104 77.3284 113.797 76.5838 112.75C75.8249 111.679 74.8929 110.747 73.8266 109.988C72.7794 109.243 71.4728 108.691 66.7077 106.856L39.3226 96.3265C36.8055 95.3562 35.1482 92.9448 35.1482 90.25C35.1482 87.5552 36.8055 85.1438 39.3226 84.1735L66.7077 73.644C71.4728 71.8091 72.7794 71.2567 73.8266 70.5122C74.8929 69.7532 75.8249 68.8212 76.5838 67.75C77.3284 66.7029 77.8856 65.3964 79.7158 60.636L90.25 33.246C91.2155 30.7337 93.6318 29.0765 96.3266 29.0765ZM44.6929 114.114C48.286 114.114 51.2018 117.025 51.2018 120.623V129.298H59.877C63.4749 129.298 66.3859 132.214 66.3859 135.807C66.3859 139.4 63.4749 142.316 59.877 142.316H51.2018V150.991C51.2018 154.584 48.286 157.5 44.6929 157.5C41.0998 157.5 38.1841 154.584 38.1841 150.991V142.316H29.5089C25.9158 142.316 23 139.4 23 135.807C23 132.214 25.9158 129.298 29.5089 129.298H38.1841V120.623C38.1841 117.025 41.0998 114.114 44.6929 114.114Z" fill="#9E00FF"/>
<path fill-rule="evenodd" clip-rule="evenodd" d="M118.822 70.5122C117.755 69.7532 116.823 68.8212 116.064 67.75C115.32 66.7029 114.763 65.3964 112.932 60.636L102.398 33.246C101.433 30.7337 99.0166 29.0765 96.3266 29.0765C93.6318 29.0765 91.2155 30.7337 90.25 33.246L79.7158 60.636C77.8856 65.3964 77.3284 66.7029 76.5838 67.75C75.8249 68.8212 74.8929 69.7532 73.8266 70.5122C72.7794 71.2567 71.4728 71.8091 66.7077 73.644L39.3226 84.1735C36.8055 85.1438 35.1482 87.5552 35.1482 90.25C35.1482 92.9448 36.8055 95.3562 39.3226 96.3265L66.7077 106.856C71.4728 108.691 72.7794 109.243 73.8266 109.988C74.8929 110.747 75.8249 111.679 76.5838 112.75C77.3284 113.797 77.8856 115.104 79.7158 119.864L90.25 147.254C91.2155 149.766 93.6318 151.423 96.3266 151.423C99.0166 151.423 101.433 149.766 102.398 147.254L112.932 119.864C114.763 115.104 115.32 113.797 116.064 112.75C116.823 111.679 117.755 110.747 118.822 109.988C119.869 109.243 121.175 108.691 125.94 106.856L153.33 96.3265C155.843 95.3562 157.5 92.9448 157.5 90.25C157.5 87.5552 155.843 85.1438 153.33 84.1735L125.94 73.644C121.175 71.8091 119.869 71.2567 118.822 70.5122ZM149.629 90.25L123.246 80.1077C118.983 78.466 116.683 77.5802 114.765 76.2171L114.763 76.2152C113.061 75.0041 111.571 73.5148 110.356 71.8016C108.982 69.8672 108.091 67.5504 106.417 63.1963L106.399 63.1488L96.3241 36.9532L86.2496 63.148L86.2309 63.1964C84.5562 67.5524 83.6655 69.8693 82.2903 71.8042C81.076 73.5163 79.5863 75.0047 77.8855 76.2152L77.8828 76.2171C75.9657 77.5802 73.6652 78.466 69.4018 80.1077L43.0238 90.25L69.4019 100.392C73.6653 102.034 75.9657 102.92 77.8828 104.283L77.8855 104.285C79.5856 105.495 81.0748 106.982 82.2888 108.694C82.2899 108.695 82.291 108.697 82.2922 108.698C83.6663 110.633 84.557 112.95 86.231 117.304L86.2492 117.351L96.3241 143.547L106.417 117.304C108.092 112.948 108.982 110.631 110.357 108.697C111.572 106.984 113.062 105.495 114.763 104.285L114.765 104.283C116.682 102.92 118.983 102.034 123.246 100.392L149.629 90.25ZM38.1841 38.1841H29.5089C25.9158 38.1841 23 41.0999 23 44.693C23 48.286 25.9158 51.2018 29.5089 51.2018H38.1841V59.877C38.1841 63.4749 41.0998 66.3858 44.6929 66.3858C48.286 66.3858 51.2018 63.4749 51.2018 59.877V51.2018H59.877C63.4749 51.2018 66.3859 48.286 66.3859 44.693C66.3859 41.0999 63.4749 38.1841 59.877 38.1841H51.2018V29.5088C51.2018 25.9157 48.286 23 44.6929 23C41.0998 23 38.1841 25.9157 38.1841 29.5088V38.1841ZM38.1841 129.298H29.5089C25.9158 129.298 23 132.214 23 135.807C23 139.4 25.9158 142.316 29.5089 142.316H38.1841V150.991C38.1841 154.584 41.0998 157.5 44.6929 157.5C48.286 157.5 51.2018 154.584 51.2018 150.991V142.316H59.877C63.4749 142.316 66.3859 139.4 66.3859 135.807C66.3859 132.214 63.4749 129.298 59.877 129.298H51.2018V120.623C51.2018 117.025 48.286 114.114 44.6929 114.114C41.0998 114.114 38.1841 117.025 38.1841 120.623V129.298Z" fill="#9E00FF"/>
</svg>
